<?xml version="1.0" encoding="UTF-8" standalone="no"?><!-- Generator: Gravit.io --><svg xmlns="http://www.w3.org/2000/svg" xmlns:xlink="http://www.w3.org/1999/xlink" style="isolation:isolate" viewBox="0 0 1366 768" width="1366pt" height="768pt"><defs><clipPath id="_clipPath_8We2i2qcX6Tl66VLLuCN44ckdU76VyJk"><rect width="1366" height="768"/></clipPath></defs><g clip-path="url(#_clipPath_8We2i2qcX6Tl66VLLuCN44ckdU76VyJk)"><radialGradient id="_rgradient_0" fx="49.85593300884912%" fy="12.20642598808447%" cx="50%" cy="50%" r="50%"><stop offset="2.5%" style="stop-color:#33D0DB"/><stop offset="100%" style="stop-color:#4A86E8"/></radialGradient><rect width="1366" height="768" style="fill:url(#_rgradient_0);"/><g style="opacity:0.79;"><g filter="url(#f7PoBDpbNsmM19Lk4J3Ns2PTCSAmnubX)"><path d=" M 263.928 674.874 C 272.936 681.95 303.494 680.971 308.521 681.994 C 313.547 683.018 323.751 685.439 329.224 691.963 C 337.535 701.87 334.294 712.902 334.095 713.536 C 331.912 720.468 315.076 737.836 314.891 744.655 Q 314.667 752.911 321.261 761.745 Q 336.59 770.913 349.928 778.834 Q 363.266 786.756 377.003 808.741 Q 381.488 816.704 381.78 827.254 C 381.967 833.997 381.794 843.069 378.595 850.04 C 368.791 871.402 344.503 888.135 321.261 894.187 C 298.019 900.24 283.764 896.939 279.854 897.036 C 269.054 897.303 243.943 888.005 240.038 885.643 C 231.727 880.614 210.277 864.325 203.409 862.857 C 196.54 861.388 194.339 860.612 185.295 861.433 C 179.699 861.941 174.307 862.966 169.8 865.705 C 164.629 868.847 160.624 873.819 158.816 875.674 C 155.431 879.145 145.527 887.423 131.741 892.763 C 117.955 898.104 104.966 897.926 93.519 897.036 C 82.072 896.146 80.579 894.365 74.407 892.763 Q 68.236 891.161 55.296 882.794 Q 46.835 875.489 42.555 868.553 C 37.316 860.061 36.529 852.208 36.185 848.616 Q 35.389 840.294 45.741 821.558 L 63.259 794.499 Q 71.347 782.995 68.037 774.562 Q 64.727 766.128 58.481 761.745 L 17.074 737.535 Q -4.427 720 1.148 700.508 C 6.722 681.015 19.064 675.853 26.629 672.026 C 34.194 668.198 46.039 666.062 58.481 666.329 C 70.924 666.596 77.488 670.618 88.347 672.026 C 95.233 672.918 99.662 672.421 101.635 672.026 C 108.837 670.581 113.564 666.691 115.815 664.905 C 117.73 663.387 120.284 661.774 122.186 659.209 C 125.523 654.707 127.994 648.638 129.665 644.768 C 130.907 641.893 135.373 633.585 142.89 627.878 C 151.259 621.524 162.872 617.822 166.779 616.485 Q 174.194 613.948 195.446 613.637 Q 210.583 615.668 220.927 620.758 C 237.963 629.139 246.305 640.058 248.002 646.392 C 250.158 654.442 254.919 667.798 263.928 674.874 Z " fill="rgb(219,72,162)"/><path d=" M 155.929 642.495 C 166.759 644.586 185.539 628.549 189.479 627.008 C 193.42 625.467 201.666 622.655 209.846 625.985 C 222.267 631.041 228.132 642.858 228.46 643.544 C 232.052 651.042 233.803 675.456 238.588 681.86 Q 244.38 689.614 254.935 694.526 Q 271.299 695.423 285.498 696.152 Q 299.696 696.882 324.259 710.432 Q 332.844 715.583 340.615 725.205 C 345.581 731.355 351.993 739.839 354.964 747.875 C 364.07 772.505 360.614 800.021 350.147 817.131 C 339.679 834.242 328.217 838.245 325.793 840.27 C 319.1 845.865 296.406 849.691 292.218 849.437 C 283.303 848.897 257.918 844.439 252.483 846.48 C 247.048 848.521 245.086 848.893 239.91 854.131 C 236.707 857.371 234.007 860.991 233.102 865.758 C 232.064 871.227 233.085 877.812 233.265 880.425 C 233.603 885.314 233.239 897.88 228.289 909.65 C 223.338 921.419 214.928 927.686 206.99 932.53 C 199.052 937.374 196.82 936.465 191.734 938.037 Q 186.647 939.61 172.382 938.272 Q 161.736 935.699 154.021 931.397 C 144.575 926.129 138.428 919.249 135.626 916.094 Q 129.136 908.784 122.267 886.315 L 113.985 852.592 Q 110.871 837.938 102.698 831.77 Q 94.525 825.602 87.391 824.636 L 43.586 822.727 Q 17.273 817.14 6.814 796.335 C -3.645 775.531 0.513 764.641 2.585 757.352 C 4.656 750.063 10.673 742.221 18.798 736.308 C 26.923 730.394 33.999 730.867 41.935 726.794 C 46.966 724.211 49.433 721.558 50.407 720.215 C 53.96 715.311 54.177 709.37 54.329 706.602 C 54.458 704.248 54.927 701.49 54.295 698.174 C 53.187 692.355 50.399 685.513 48.683 681.103 C 47.408 677.827 44.283 667.925 44.973 658.92 C 45.741 648.894 50.483 639.717 52.013 636.545 Q 54.918 630.525 68.243 619.715 Q 79.355 614.1 89.609 613.689 C 106.496 613.014 119.664 618.991 125.299 624.014 C 132.461 630.399 145.099 640.405 155.929 642.495 Z " fill="rgb(42,232,138)"/><linearGradient id="_lgradient_0" x1="0.2641880342589329" y1="0.12972159534449984" x2="0.9484160366561684" y2="0.8632359520746085" gradientTransform="matrix(360.062,0,0,321.753,21.77,594.866)" gradientUnits="userSpaceOnUse"><stop offset="1.6666666666666667%" stop-opacity="1" style="stop-color:rgb(51,208,219)"/><stop offset="97.5%" stop-opacity="1" style="stop-color:rgb(21,87,92)"/></linearGradient><path d=" M 99.349 694.219 C 108.314 686.628 107.074 660.878 108.37 656.642 C 109.667 652.406 112.734 643.808 121 639.196 C 133.551 632.193 147.527 634.924 148.33 635.092 C 157.112 636.931 179.115 651.118 187.755 651.274 Q 198.213 651.463 209.405 645.906 Q 221.019 632.989 231.055 621.75 Q 241.091 610.51 268.943 598.935 Q 279.032 595.156 292.397 594.909 C 300.94 594.752 312.433 594.897 321.264 597.593 C 348.327 605.855 369.526 626.321 377.194 645.906 C 384.862 665.491 380.68 677.503 380.802 680.798 C 381.141 689.899 369.362 711.059 366.369 714.349 C 359.998 721.353 339.362 739.428 337.502 745.215 C 335.641 751.003 334.658 752.858 335.698 760.479 C 336.341 765.194 337.641 769.738 341.11 773.536 C 345.091 777.893 351.39 781.268 353.74 782.792 C 358.137 785.644 368.624 793.989 375.39 805.606 C 382.155 817.223 381.93 828.169 380.802 837.815 C 379.675 847.46 377.419 848.719 375.39 853.919 Q 373.36 859.119 362.76 870.023 Q 353.506 877.153 344.719 880.759 C 333.959 885.175 324.011 885.838 319.46 886.127 Q 308.917 886.798 285.181 878.075 L 250.901 863.313 Q 236.327 856.498 225.642 859.287 Q 214.958 862.076 209.405 867.339 L 178.734 902.232 Q 156.52 920.349 131.825 915.652 C 107.13 910.955 100.59 900.554 95.741 894.18 C 90.892 887.805 88.186 877.824 88.524 867.339 C 88.863 856.855 93.958 851.323 95.741 842.172 C 96.872 836.37 96.243 832.638 95.741 830.976 C 93.91 824.907 88.982 820.924 86.72 819.026 C 84.797 817.413 82.753 815.261 79.503 813.658 C 73.801 810.846 66.112 808.764 61.209 807.356 C 57.567 806.31 47.041 802.546 39.811 796.212 C 31.761 789.159 27.071 779.374 25.378 776.082 Q 22.164 769.833 21.77 751.925 Q 24.343 739.17 30.79 730.453 C 41.409 716.098 55.242 709.068 63.266 707.639 C 73.465 705.822 90.385 701.809 99.349 694.219 Z " fill="url(#_lgradient_0)"/><linearGradient id="_lgradient_1" x1="0" y1="0.5" x2="1" y2="0.5" gradientTransform="matrix(18.361,0,0,18.361,217.003,879.487)" gradientUnits="userSpaceOnUse"><stop offset="0%" stop-opacity="1" style="stop-color:rgb(219,72,162)"/><stop offset="98.33333333333333%" stop-opacity="1" style="stop-color:rgb(134,43,99)"/></linearGradient><circle vector-effect="non-scaling-stroke" cx="226.1838374868056" cy="888.6674796108426" r="9.180581552197395" fill="url(#_lgradient_1)"/><linearGradient id="_lgradient_2" x1="0" y1="0.5" x2="1" y2="0.5" gradientTransform="matrix(6.945,0,0,7,154.021,951.476)" gradientUnits="userSpaceOnUse"><stop offset="0%" stop-opacity="1" style="stop-color:rgb(42,232,138)"/><stop offset="98.33333333333333%" stop-opacity="1" style="stop-color:rgb(27,151,89)"/></linearGradient><ellipse vector-effect="non-scaling-stroke" cx="157.4936440915044" cy="954.975692430206" rx="3.472607313798221" ry="3.5" fill="url(#_lgradient_2)"/><linearGradient id="_lgradient_3" x1="0.24453417834374497" y1="0.12193096694535299" x2="0.8077025066856405" y2="0.8311058989314395" gradientTransform="matrix(13.105,0,0,13.411,207.823,925.476)" gradientUnits="userSpaceOnUse"><stop offset="0%" stop-opacity="1" style="stop-color:rgb(51,208,219)"/><stop offset="97.91666666666666%" stop-opacity="1" style="stop-color:rgb(21,87,92)"/></linearGradient><ellipse vector-effect="non-scaling-stroke" cx="214.374939326269" cy="932.1813194633137" rx="6.552264943857665" ry="6.70562703310793" fill="url(#_lgradient_3)"/><linearGradient id="_lgradient_4" x1="0.24453417834374497" y1="0.12193096694535299" x2="0.8077025066856405" y2="0.8311058989314395" gradientTransform="matrix(18.361,0,0,18.361,154.021,627.878)" gradientUnits="userSpaceOnUse"><stop offset="0%" stop-opacity="1" style="stop-color:rgb(219,72,162)"/><stop offset="98.33333333333333%" stop-opacity="1" style="stop-color:rgb(134,43,99)"/></linearGradient><circle vector-effect="non-scaling-stroke" cx="163.2016183299022" cy="637.0586609963211" r="9.180581552197395" fill="url(#_lgradient_4)"/><linearGradient id="_lgradient_5" x1="0" y1="0.5" x2="1" y2="0.5" gradientTransform="matrix(9.976,0,0,8.236,122.267,646.239)" gradientUnits="userSpaceOnUse"><stop offset="0%" stop-opacity="1" style="stop-color:rgb(42,232,138)"/><stop offset="98.75%" stop-opacity="1" style="stop-color:rgb(27,151,89)"/></linearGradient><ellipse vector-effect="non-scaling-stroke" cx="127.2550778323789" cy="650.3574674893622" rx="4.98811003539857" ry="4.118224940843788" fill="url(#_lgradient_5)"/><linearGradient id="_lgradient_6" x1="0" y1="0.5" x2="1" y2="0.5" gradientTransform="matrix(26.087,0,0,27.951,181.735,594.866)" gradientUnits="userSpaceOnUse"><stop offset="0%" stop-opacity="1" style="stop-color:rgb(51,208,219)"/><stop offset="98.33333333333333%" stop-opacity="1" style="stop-color:rgb(21,87,92)"/></linearGradient><ellipse vector-effect="non-scaling-stroke" cx="194.77893990107327" cy="608.8418292706731" rx="13.043734481338191" ry="13.975692430205754" fill="url(#_lgradient_6)"/><linearGradient id="_lgradient_7" x1="0.24453417834374497" y1="0.12193096694535299" x2="0.8077025066856405" y2="0.8311058989314395" gradientTransform="matrix(9.571,0,0,9.951,147.923,577.524)" gradientUnits="userSpaceOnUse"><stop offset="0%" stop-opacity="1" style="stop-color:rgb(51,208,219)"/><stop offset="97.91666666666666%" stop-opacity="1" style="stop-color:rgb(21,87,92)"/></linearGradient><ellipse vector-effect="non-scaling-stroke" cx="152.70808050773405" cy="582.4999999999999" rx="4.785563583769971" ry="4.975692430205754" fill="url(#_lgradient_7)"/><linearGradient id="_lgradient_8" x1="0" y1="0.5" x2="1" y2="0.5" gradientTransform="matrix(18.361,0,0,18.361,372.651,730.453)" gradientUnits="userSpaceOnUse"><stop offset="0%" stop-opacity="1" style="stop-color:rgb(42,232,138)"/><stop offset="97.91666666666666%" stop-opacity="1" style="stop-color:rgb(27,151,89)"/></linearGradient><circle vector-effect="non-scaling-stroke" cx="381.8315739438629" cy="739.6337765699154" r="9.180581552197395" fill="url(#_lgradient_8)"/><linearGradient id="_lgradient_9" x1="0" y1="0.5" x2="1" y2="0.5" gradientTransform="matrix(11.207,0,0,11.665,343.036,755.743)" gradientUnits="userSpaceOnUse"><stop offset="0%" stop-opacity="1" style="stop-color:rgb(51,208,219)"/><stop offset="98.33333333333333%" stop-opacity="1" style="stop-color:rgb(21,87,92)"/></linearGradient><ellipse vector-effect="non-scaling-stroke" cx="348.6398088981708" cy="761.5748560032755" rx="5.60337896960516" ry="5.832355347414364" fill="url(#_lgradient_9)"/><linearGradient id="_lgradient_10" x1="0" y1="0.5" x2="1" y2="0.5" gradientTransform="matrix(22.349,0,0,23.318,331.894,703.476)" gradientUnits="userSpaceOnUse"><stop offset="0%" stop-opacity="1" style="stop-color:rgb(219,72,162)"/><stop offset="98.33333333333333%" stop-opacity="1" style="stop-color:rgb(134,43,99)"/></linearGradient><ellipse vector-effect="non-scaling-stroke" cx="343.0686840636107" cy="715.1346338106564" rx="11.17450380416625" ry="11.658941380450301" fill="url(#_lgradient_10)"/><linearGradient id="_lgradient_11" x1="0.24453417834374497" y1="0.12193096694535299" x2="0.8077025066856405" y2="0.8311058989314395" gradientTransform="matrix(18.361,0,0,18.361,3.408,673.602)" gradientUnits="userSpaceOnUse"><stop offset="0%" stop-opacity="1" style="stop-color:rgb(51,208,219)"/><stop offset="97.91666666666666%" stop-opacity="1" style="stop-color:rgb(21,87,92)"/></linearGradient><circle vector-effect="non-scaling-stroke" cx="12.588978148316743" cy="682.7826247214157" r="9.180581552197395" fill="url(#_lgradient_11)"/></g><defs><filter id="f7PoBDpbNsmM19Lk4J3Ns2PTCSAmnubX" x="-200%" y="-200%" width="400%" height="400%" filterUnits="objectBoundingBox" color-interpolation-filters="sRGB"><feGaussianBlur xmlns="http://www.w3.org/2000/svg" in="SourceGraphic" stdDeviation="6.440413594258542"/><feOffset xmlns="http://www.w3.org/2000/svg" dx="-2" dy="16" result="pf_100_offsetBlur"/><feFlood xmlns="http://www.w3.org/2000/svg" flood-color="#000000" flood-opacity="0.25"/><feComposite xmlns="http://www.w3.org/2000/svg" in2="pf_100_offsetBlur" operator="in" result="pf_100_dropShadow"/><feBlend xmlns="http://www.w3.org/2000/svg" in="SourceGraphic" in2="pf_100_dropShadow" mode="normal"/></filter></defs></g><g style="opacity:0.79;"><g filter="url(#81XmV0LKcc4BORknRdt6nIZ802UMRBEB)"><path d=" M 1238.915 -93.126 C 1247.924 -86.05 1278.482 -87.029 1283.508 -86.006 C 1288.535 -84.982 1298.739 -82.561 1304.212 -76.037 C 1312.523 -66.13 1309.282 -55.098 1309.082 -54.464 C 1306.9 -47.532 1290.064 -30.164 1289.879 -23.345 Q 1289.655 -15.089 1296.249 -6.255 Q 1311.578 2.913 1324.916 10.834 Q 1338.254 18.756 1351.99 40.741 Q 1356.476 48.704 1356.768 59.254 C 1356.955 65.997 1356.782 75.069 1353.583 82.04 C 1343.779 103.402 1319.491 120.135 1296.249 126.187 C 1273.007 132.24 1258.752 128.939 1254.841 129.036 C 1244.042 129.303 1218.931 120.005 1215.026 117.643 C 1206.715 112.614 1185.264 96.325 1178.396 94.857 C 1171.528 93.388 1169.326 92.612 1160.283 93.433 C 1154.687 93.941 1149.294 94.966 1144.788 97.705 C 1139.617 100.847 1135.612 105.819 1133.803 107.674 C 1130.419 111.145 1120.515 119.423 1106.729 124.763 C 1092.943 130.104 1079.953 129.926 1068.507 129.036 C 1057.06 128.146 1055.567 126.365 1049.395 124.763 Q 1043.224 123.161 1030.284 114.794 Q 1021.823 107.489 1017.543 100.553 C 1012.303 92.061 1011.517 84.208 1011.173 80.616 Q 1010.376 72.294 1020.728 53.558 L 1038.247 26.499 Q 1046.335 14.995 1043.025 6.562 Q 1039.715 -1.872 1033.469 -6.255 L 992.062 -30.465 Q 970.561 -48 976.135 -67.492 C 981.71 -86.985 994.052 -92.147 1001.617 -95.974 C 1009.182 -99.802 1021.027 -101.938 1033.469 -101.671 C 1045.911 -101.404 1052.476 -97.382 1063.335 -95.974 C 1070.221 -95.082 1074.65 -95.579 1076.623 -95.974 C 1083.825 -97.419 1088.551 -101.309 1090.803 -103.095 C 1092.718 -104.613 1095.272 -106.226 1097.173 -108.791 C 1100.511 -113.293 1102.982 -119.362 1104.653 -123.232 C 1105.894 -126.107 1110.36 -134.415 1117.877 -140.122 C 1126.247 -146.476 1137.86 -150.178 1141.766 -151.515 Q 1149.182 -154.052 1170.433 -154.363 Q 1185.571 -152.332 1195.915 -147.242 C 1212.95 -138.861 1221.293 -127.942 1222.989 -121.608 C 1225.146 -113.558 1229.907 -100.202 1238.915 -93.126 Z " fill="rgb(219,72,162)"/><path d=" M 1130.917 -125.505 C 1141.747 -123.414 1160.527 -139.451 1164.467 -140.992 C 1168.408 -142.533 1176.654 -145.345 1184.834 -142.015 C 1197.255 -136.959 1203.119 -125.142 1203.448 -124.456 C 1207.039 -116.958 1208.791 -92.544 1213.575 -86.14 Q 1219.367 -78.386 1229.923 -73.474 Q 1246.287 -72.577 1260.485 -71.848 Q 1274.684 -71.118 1299.247 -57.568 Q 1307.832 -52.417 1315.602 -42.795 C 1320.569 -36.645 1326.981 -28.161 1329.952 -20.125 C 1339.058 4.505 1335.602 32.021 1325.135 49.131 C 1314.667 66.242 1303.205 70.245 1300.781 72.27 C 1294.088 77.865 1271.393 81.691 1267.206 81.437 C 1258.291 80.897 1232.905 76.439 1227.471 78.48 C 1222.036 80.521 1220.074 80.893 1214.898 86.131 C 1211.695 89.371 1208.995 92.991 1208.09 97.758 C 1207.052 103.227 1208.073 109.812 1208.253 112.425 C 1208.591 117.314 1208.227 129.88 1203.276 141.65 C 1198.326 153.419 1189.916 159.686 1181.978 164.53 C 1174.04 169.374 1171.808 168.465 1166.722 170.037 Q 1161.635 171.61 1147.37 170.272 Q 1136.724 167.699 1129.009 163.397 C 1119.563 158.129 1113.416 151.249 1110.614 148.094 Q 1104.124 140.784 1097.255 118.315 L 1088.972 84.592 Q 1085.859 69.938 1077.686 63.77 Q 1069.513 57.602 1062.379 56.636 L 1018.574 54.727 Q 992.261 49.14 981.802 28.335 C 971.342 7.531 975.501 -3.359 977.572 -10.648 C 979.644 -17.937 985.661 -25.779 993.786 -31.692 C 1001.91 -37.606 1008.987 -37.133 1016.923 -41.206 C 1021.954 -43.789 1024.421 -46.442 1025.395 -47.785 C 1028.948 -52.689 1029.165 -58.63 1029.317 -61.398 C 1029.446 -63.752 1029.915 -66.51 1029.283 -69.826 C 1028.175 -75.645 1025.387 -82.487 1023.671 -86.897 C 1022.396 -90.173 1019.27 -100.075 1019.96 -109.08 C 1020.729 -119.106 1025.471 -128.283 1027.001 -131.455 Q 1029.906 -137.475 1043.231 -148.285 Q 1054.343 -153.9 1064.597 -154.311 C 1081.484 -154.986 1094.652 -149.009 1100.287 -143.986 C 1107.449 -137.601 1120.086 -127.595 1130.917 -125.505 Z " fill="rgb(42,232,138)"/><linearGradient id="_lgradient_12" x1="0.2641880342589329" y1="0.12972159534449984" x2="0.9484160366561684" y2="0.8632359520746085" gradientTransform="matrix(360.062,0,0,321.753,996.757,-173.134)" gradientUnits="userSpaceOnUse"><stop offset="1.6666666666666667%" stop-opacity="1" style="stop-color:rgb(51,208,219)"/><stop offset="97.5%" stop-opacity="1" style="stop-color:rgb(21,87,92)"/></linearGradient><path d=" M 1074.337 -73.781 C 1083.302 -81.372 1082.062 -107.122 1083.358 -111.358 C 1084.655 -115.594 1087.722 -124.192 1095.988 -128.804 C 1108.538 -135.807 1122.514 -133.076 1123.318 -132.908 C 1132.099 -131.069 1154.103 -116.882 1162.742 -116.726 Q 1173.201 -116.537 1184.393 -122.094 Q 1196.007 -135.011 1206.043 -146.25 Q 1216.079 -157.49 1243.931 -169.065 Q 1254.019 -172.844 1267.385 -173.091 C 1275.928 -173.248 1287.421 -173.103 1296.252 -170.407 C 1323.315 -162.145 1344.514 -141.679 1352.182 -122.094 C 1359.85 -102.509 1355.668 -90.497 1355.79 -87.202 C 1356.128 -78.101 1344.35 -56.941 1341.357 -53.651 C 1334.986 -46.647 1314.35 -28.572 1312.49 -22.785 C 1310.629 -16.997 1309.646 -15.142 1310.686 -7.521 C 1311.329 -2.806 1312.629 1.738 1316.098 5.536 C 1320.079 9.893 1326.378 13.268 1328.727 14.792 C 1333.125 17.644 1343.612 25.989 1350.378 37.606 C 1357.143 49.223 1356.918 60.169 1355.79 69.815 C 1354.663 79.46 1352.407 80.719 1350.378 85.919 Q 1348.348 91.119 1337.748 102.023 Q 1328.494 109.153 1319.706 112.759 C 1308.947 117.175 1298.999 117.838 1294.448 118.127 Q 1283.905 118.798 1260.168 110.075 L 1225.889 95.313 Q 1211.314 88.498 1200.63 91.287 Q 1189.946 94.076 1184.393 99.339 L 1153.721 134.232 Q 1131.507 152.349 1106.813 147.652 C 1082.118 142.955 1075.578 132.554 1070.729 126.18 C 1065.88 119.805 1063.174 109.824 1063.512 99.339 C 1063.851 88.855 1068.946 83.323 1070.729 74.172 C 1071.86 68.37 1071.23 64.638 1070.729 62.976 C 1068.898 56.907 1063.97 52.924 1061.708 51.026 C 1059.784 49.413 1057.741 47.261 1054.491 45.658 C 1048.788 42.846 1041.099 40.764 1036.196 39.356 C 1032.555 38.31 1022.029 34.546 1014.799 28.212 C 1006.749 21.159 1002.059 11.374 1000.366 8.082 Q 997.152 1.833 996.757 -16.075 Q 999.331 -28.83 1005.778 -37.547 C 1016.397 -51.902 1030.23 -58.932 1038.254 -60.361 C 1048.453 -62.178 1065.373 -66.191 1074.337 -73.781 Z " fill="url(#_lgradient_12)"/><linearGradient id="_lgradient_13" x1="0" y1="0.5" x2="1" y2="0.5" gradientTransform="matrix(18.361,0,0,18.361,1191.991,111.487)" gradientUnits="userSpaceOnUse"><stop offset="0%" stop-opacity="1" style="stop-color:rgb(219,72,162)"/><stop offset="98.33333333333333%" stop-opacity="1" style="stop-color:rgb(134,43,99)"/></linearGradient><circle vector-effect="non-scaling-stroke" cx="1201.1716819907456" cy="120.66747961084246" r="9.18058155219751" fill="url(#_lgradient_13)"/><linearGradient id="_lgradient_14" x1="0" y1="0.5" x2="1" y2="0.5" gradientTransform="matrix(6.945,0,0,7,1129.009,183.476)" gradientUnits="userSpaceOnUse"><stop offset="0%" stop-opacity="1" style="stop-color:rgb(42,232,138)"/><stop offset="98.33333333333333%" stop-opacity="1" style="stop-color:rgb(27,151,89)"/></linearGradient><ellipse vector-effect="non-scaling-stroke" cx="1132.4814885954445" cy="186.9756924302059" rx="3.4726073137981075" ry="3.5" fill="url(#_lgradient_14)"/><linearGradient id="_lgradient_15" x1="0.24453417834374497" y1="0.12193096694535299" x2="0.8077025066856405" y2="0.8311058989314395" gradientTransform="matrix(13.105,0,0,13.411,1182.811,157.476)" gradientUnits="userSpaceOnUse"><stop offset="0%" stop-opacity="1" style="stop-color:rgb(51,208,219)"/><stop offset="97.91666666666666%" stop-opacity="1" style="stop-color:rgb(21,87,92)"/></linearGradient><ellipse vector-effect="non-scaling-stroke" cx="1189.362783830209" cy="164.1813194633136" rx="6.552264943857608" ry="6.705627033107874" fill="url(#_lgradient_15)"/><linearGradient id="_lgradient_16" x1="0.24453417834374497" y1="0.12193096694535299" x2="0.8077025066856405" y2="0.8311058989314395" gradientTransform="matrix(18.361,0,0,18.361,1129.009,-140.122)" gradientUnits="userSpaceOnUse"><stop offset="0%" stop-opacity="1" style="stop-color:rgb(219,72,162)"/><stop offset="98.33333333333333%" stop-opacity="1" style="stop-color:rgb(134,43,99)"/></linearGradient><circle vector-effect="non-scaling-stroke" cx="1138.1894628338423" cy="-130.941339003679" r="9.18058155219751" fill="url(#_lgradient_16)"/><linearGradient id="_lgradient_17" x1="0" y1="0.5" x2="1" y2="0.5" gradientTransform="matrix(9.976,0,0,8.236,1097.255,-121.761)" gradientUnits="userSpaceOnUse"><stop offset="0%" stop-opacity="1" style="stop-color:rgb(42,232,138)"/><stop offset="98.75%" stop-opacity="1" style="stop-color:rgb(27,151,89)"/></linearGradient><ellipse vector-effect="non-scaling-stroke" cx="1102.2429223363188" cy="-117.64253251063779" rx="4.988110035398677" ry="4.118224940843746" fill="url(#_lgradient_17)"/><linearGradient id="_lgradient_18" x1="0" y1="0.5" x2="1" y2="0.5" gradientTransform="matrix(26.087,0,0,27.951,1156.723,-173.134)" gradientUnits="userSpaceOnUse"><stop offset="0%" stop-opacity="1" style="stop-color:rgb(51,208,219)"/><stop offset="98.33333333333333%" stop-opacity="1" style="stop-color:rgb(21,87,92)"/></linearGradient><ellipse vector-effect="non-scaling-stroke" cx="1169.7667844050136" cy="-159.15817072932688" rx="13.043734481338106" ry="13.975692430205811" fill="url(#_lgradient_18)"/><linearGradient id="_lgradient_19" x1="0.24453417834374497" y1="0.12193096694535299" x2="0.8077025066856405" y2="0.8311058989314395" gradientTransform="matrix(9.571,0,0,9.951,1122.91,-190.476)" gradientUnits="userSpaceOnUse"><stop offset="0%" stop-opacity="1" style="stop-color:rgb(51,208,219)"/><stop offset="97.91666666666666%" stop-opacity="1" style="stop-color:rgb(21,87,92)"/></linearGradient><ellipse vector-effect="non-scaling-stroke" cx="1127.695925011674" cy="-185.50000000000009" rx="4.785563583769999" ry="4.975692430205783" fill="url(#_lgradient_19)"/><linearGradient id="_lgradient_20" x1="0" y1="0.5" x2="1" y2="0.5" gradientTransform="matrix(18.361,0,0,18.361,1347.639,-37.547)" gradientUnits="userSpaceOnUse"><stop offset="0%" stop-opacity="1" style="stop-color:rgb(42,232,138)"/><stop offset="97.91666666666666%" stop-opacity="1" style="stop-color:rgb(27,151,89)"/></linearGradient><circle vector-effect="non-scaling-stroke" cx="1356.8194184478027" cy="-28.366223430084574" r="9.180581552197282" fill="url(#_lgradient_20)"/><linearGradient id="_lgradient_21" x1="0" y1="0.5" x2="1" y2="0.5" gradientTransform="matrix(11.207,0,0,11.665,1318.024,-12.257)" gradientUnits="userSpaceOnUse"><stop offset="0%" stop-opacity="1" style="stop-color:rgb(51,208,219)"/><stop offset="98.33333333333333%" stop-opacity="1" style="stop-color:rgb(21,87,92)"/></linearGradient><ellipse vector-effect="non-scaling-stroke" cx="1323.6276534021108" cy="-6.425143996724358" rx="5.603378969605046" ry="5.832355347414406" fill="url(#_lgradient_21)"/><linearGradient id="_lgradient_22" x1="0" y1="0.5" x2="1" y2="0.5" gradientTransform="matrix(22.349,0,0,23.318,1306.882,-64.524)" gradientUnits="userSpaceOnUse"><stop offset="0%" stop-opacity="1" style="stop-color:rgb(219,72,162)"/><stop offset="98.33333333333333%" stop-opacity="1" style="stop-color:rgb(134,43,99)"/></linearGradient><ellipse vector-effect="non-scaling-stroke" cx="1318.0565285675507" cy="-52.865366189343575" rx="11.174503804166307" ry="11.658941380450273" fill="url(#_lgradient_22)"/><linearGradient id="_lgradient_23" x1="0.24453417834374497" y1="0.12193096694535299" x2="0.8077025066856405" y2="0.8311058989314395" gradientTransform="matrix(18.361,0,0,18.361,978.396,-94.398)" gradientUnits="userSpaceOnUse"><stop offset="0%" stop-opacity="1" style="stop-color:rgb(51,208,219)"/><stop offset="97.91666666666666%" stop-opacity="1" style="stop-color:rgb(21,87,92)"/></linearGradient><circle vector-effect="non-scaling-stroke" cx="987.5768226522565" cy="-85.2173752785844" r="9.180581552197395" fill="url(#_lgradient_23)"/></g><defs><filter id="81XmV0LKcc4BORknRdt6nIZ802UMRBEB" x="-200%" y="-200%" width="400%" height="400%" filterUnits="objectBoundingBox" color-interpolation-filters="sRGB"><feGaussianBlur xmlns="http://www.w3.org/2000/svg" in="SourceGraphic" stdDeviation="6.440413594258542"/><feOffset xmlns="http://www.w3.org/2000/svg" dx="8" dy="7" result="pf_100_offsetBlur"/><feFlood xmlns="http://www.w3.org/2000/svg" flood-color="#000000" flood-opacity="0.25"/><feComposite xmlns="http://www.w3.org/2000/svg" in2="pf_100_offsetBlur" operator="in" result="pf_100_dropShadow"/><feBlend xmlns="http://www.w3.org/2000/svg" in="SourceGraphic" in2="pf_100_dropShadow" mode="normal"/></filter></defs></g></g></svg>